HIERARCHY
ROOT Hips
{
   OFFSET 0.00000 0.00000 0.00000
   CHANNELS 6 Xposition Yposition Zposition Zrotation Xrotation Yrotation
   JOINT Spine
   {
      OFFSET 0.000000 9.512400 0.000000
      CHANNELS 3 Zrotation Xrotation Yrotation
      JOINT Spine1
      {
         OFFSET -0.000000 20.525920 0.102128
         CHANNELS 3 Zrotation Xrotation Yrotation
         JOINT HEad
         {
            OFFSET 0.000000 6.987328 0.009072
            CHANNELS 3 Zrotation Xrotation Yrotation
            End Site
            {
               OFFSET -0.232000 10.219360 2.011160
            }
         }
         JOINT LeftShoulder1
         {
            OFFSET 7.192000 -0.289800 -0.176000
            CHANNELS 3 Zrotation Xrotation Yrotation
            JOINT LeftArm
            {
               OFFSET 8.226160 -0.002704 0.257696
               CHANNELS 3 Zrotation Xrotation Yrotation
               JOINT LeftForeArm
               {
                  OFFSET 26.213519 0.079312 -1.139472
                  CHANNELS 3 Zrotation Xrotation Yrotation
                  JOINT LeftHand
                  {
                     OFFSET 22.051441 0.068288 0.817728
                     CHANNELS 3 Zrotation Xrotation Yrotation
                     End Site
                     {
                        OFFSET 13.395442 -0.480000 1.202328
                     }
                  }
               }
            }
         }
         JOINT RightShoulder
         {
            OFFSET -7.192000 -0.289800 -0.176000
            CHANNELS 3 Zrotation Xrotation Yrotation
            JOINT RightArm
            {
               OFFSET -8.226160 -0.002704 0.257696
               CHANNELS 3 Zrotation Xrotation Yrotation
               JOINT RightForeArm
               {
                  OFFSET -26.317679 0.079312 -1.139472
                  CHANNELS 3 Zrotation Xrotation Yrotation
                  JOINT RightHand
                  {
                     OFFSET -21.993682 0.068288 0.817728
                     CHANNELS 3 Zrotation Xrotation Yrotation
                     End Site
                     {
                        OFFSET -13.304962 -0.480000 1.202328
                     }
                  }
               }
            }
         }
      }
   }
   JOINT LeftUpLeg
   {
      OFFSET 7.156640 -6.933656 0.081320
      CHANNELS 3 Zrotation Xrotation Yrotation
      JOINT LeftLeg
      {
         OFFSET 0.000000 -35.538158 1.098160
         CHANNELS 3 Zrotation Xrotation Yrotation
         JOINT LeftFoot
         {
            OFFSET -0.202840 -33.673920 -1.168472
            CHANNELS 3 Zrotation Xrotation Yrotation
            JOINT LeftToes
            {
               OFFSET -0.032000 -3.532072 6.799280
               CHANNELS 3 Zrotation Xrotation Yrotation
               End Site
               {
                  OFFSET 0.064000 -0.037960 7.823832
               }
            }
         }
      }
   }
   JOINT RightUpLeg
   {
      OFFSET -7.156640 -6.933656 0.081320
      CHANNELS 3 Zrotation Xrotation Yrotation
      JOINT RightLeg
      {
         OFFSET 0.000000 -35.538158 1.098160
         CHANNELS 3 Zrotation Xrotation Yrotation
         JOINT RightFoot
         {
            OFFSET 0.202840 -33.673920 -1.168472
            CHANNELS 3 Zrotation Xrotation Yrotation
            JOINT RightToes
            {
               OFFSET 0.032000 -3.532072 6.799280
               CHANNELS 3 Zrotation Xrotation Yrotation
               End Site
               {
                  OFFSET -0.064000 -0.109960 7.823832
               }
            }
         }
      }
   }
}
MOTION
Frames: 6
Frame Time: 0.016670
91.026524 66.217011 -105.558222 -20.558600 -25.170569 -64.920955 -16.645915 35.105294 103.242148 8.125832 4.673390 -58.056758 -12.832098 10.163941 -11.829587 -17.317075 3.009657 5.367623 -115.138083 -19.008830 -125.084341 -23.610931 76.527079 -37.059592 -110.598569 -30.610183 -113.949521 28.211138 329.115780 5.092809 96.374707 -15.155421 437.725404 45.749881 92.619667 16.912303 -35.040462 -1.881007 24.605866 1.499695 2.075227 44.344692 352.267580 36.060530 -291.235714 16.034836 22.945327 -26.162159 -37.160286 -11.950450 -35.062974 -39.244098 -9.407003 -14.665448 -371.757935 15.553487 412.610498 5.609859 47.347442 9.578809 53.803415 7.022728 -19.747549
93.832234 69.342455 -104.073704 -22.293234 -22.091666 -63.871776 -10.996570 36.724804 99.636382 11.092794 8.242652 -57.379736 -16.284793 14.023703 -12.030664 -17.117301 -1.838733 7.917321 -110.758737 -21.506046 -117.545083 -21.154213 75.247258 -38.343521 -107.966050 -29.355794 -112.229201 27.774852 324.207742 2.434220 92.468194 -11.506080 432.294530 44.724208 91.122517 19.149082 -34.190793 -2.379483 26.034297 1.350459 3.716802 41.348777 353.933791 31.038476 -299.872598 4.636467 30.031317 -19.147226 -18.368013 7.584686 -38.508928 -35.591122 -2.230534 -18.781164 -375.030634 19.137181 416.482915 7.744442 43.304192 11.090481 36.819781 -8.286054 -14.473208
96.576909 72.502049 -102.963847 -23.673794 -18.072616 -62.668270 -4.871889 36.695902 95.061746 12.175675 9.413385 -58.089755 -19.119725 16.103330 -12.172346 -16.552941 -7.740978 10.271711 -106.409682 -22.309703 -110.566098 -19.427027 74.292528 -40.497855 -108.314602 -29.331844 -114.735471 28.045720 317.041508 -0.234463 88.934356 -8.089759 425.484776 42.920796 87.813516 21.312051 -33.083018 0.567847 28.181350 3.270702 3.471368 35.784129 355.620056 27.910976 -308.292145 1.978951 33.876188 -13.907349 -10.566874 -2.689419 -26.668815 -30.348945 4.824312 -20.909434 -377.950403 25.141836 421.840597 9.942102 36.729592 13.719667 40.091288 -7.036790 -16.149024
99.083937 75.407018 -102.231730 -24.579544 -13.946947 -60.853106 -0.286432 36.101354 91.275588 12.520915 10.779253 -58.489731 -21.362679 17.017131 -12.266115 -15.670928 -13.874587 13.527915 -101.850155 -22.366240 -103.808097 -17.285095 74.043110 -41.851342 -105.926419 -28.613341 -114.970115 27.670707 308.944428 -2.487395 86.430559 -4.939549 417.470560 40.685296 84.447728 23.393637 -32.737520 0.216470 29.537775 5.781700 2.069448 29.084390 356.552158 24.578840 -314.030624 -1.292239 36.457204 -8.244458 5.156161 6.925176 -32.647440 -23.212355 12.105242 -22.037202 -377.741508 31.672899 425.104499 -1.499036 29.508026 16.455507 55.421220 -12.416825 -9.627200
101.387900 77.890314 -101.970547 -22.304447 -10.707030 -60.606762 0.321339 35.637690 89.654552 12.192067 12.472840 -58.193089 -22.178377 15.839461 -12.596814 -13.167573 -21.217025 17.500157 -97.520061 -21.553545 -97.389092 -15.932637 74.103420 -44.086149 -105.121386 -28.161220 -118.066882 27.207529 298.361159 -4.271601 85.293435 -2.449427 408.680735 38.792380 81.305179 26.196118 -31.671867 2.107473 31.772015 6.323572 -0.127119 22.303771 356.291654 19.130414 -318.603326 -5.806241 35.917431 -4.233009 7.872468 1.771365 -22.292634 -18.316595 15.026927 -23.780255 -377.686676 34.465599 424.362604 9.920541 25.000193 19.211662 29.951394 -19.557588 -12.225497
103.645190 79.875096 -102.108067 -17.166432 -9.006778 -61.491524 -1.434645 33.242281 88.821515 11.112618 12.769995 -58.111482 -22.942115 13.250341 -12.761882 -10.659044 -27.811154 21.584728 -94.476126 -20.100811 -91.226479 -14.982179 73.725021 -46.468417 -103.020932 -28.008978 -119.379563 26.424959 287.438785 -5.429393 84.874253 -0.558600 398.800238 36.529419 79.019667 28.648101 -31.034559 2.650742 34.489481 4.604627 -5.127486 16.514687 356.335914 15.916028 -320.942721 -11.420857 34.537514 -0.313395 31.187593 2.542973 -26.460740 -13.837100 15.983510 -21.548900 -375.906127 34.785276 423.969403 -4.928923 21.516863 21.920988 35.295347 -33.446880 -2.169209
